<?xml version="1.0" encoding="utf-8"?>
<!-- Generator: Adobe Illustrator 16.0.0, SVG Export Plug-In . SVG Version: 6.00 Build 0)  -->
<!DOCTYPE svg PUBLIC "-//W3C//DTD SVG 1.1//EN" "http://www.w3.org/Graphics/SVG/1.1/DTD/svg11.dtd">
<svg version="1.1" id="Layer_1" xmlns="http://www.w3.org/2000/svg" xmlns:xlink="http://www.w3.org/1999/xlink" x="0px" y="0px"
	 width="239px" height="48px" viewBox="0 0 239 48" enable-background="new 0 0 239 48" xml:space="preserve">
<g>
	<g>
		<path d="M406.982,410.212l15.776-0.402c0,0,2.01-0.201,1.809-0.904c-0.2-0.703,0-5.527,0-5.527s-0.101-0.603-1.507-1.104
			c-1.406-0.503-14.797-1.482-15.399-1.558c0,0,0-6.632-0.679-7.687c-0.678-1.057-2.261-1.434-2.638-1.207
			s2.638,14.319-1.432,20.349c0,0-0.302,1.733-7.461,2.939c-7.16,1.206-30.523,2.487-44.165,0.603
			c-13.641-1.884-14.62-1.582-22.458-3.994c0,0-4.748-2.261-5.804-3.692c-1.055-1.433-1.733-4.371,0-12.36
			c0,0,1.433-5.275,2.186-5.729c0.754-0.451,0.452-1.732-0.15-1.809c-0.603-0.074-2.562,0.527-2.939,1.434
			c-0.377,0.904-2.713,10.55-3.919,13.112s-2.261,3.467-11.229,3.467s-9.344-0.753-11.002-3.692s-2.412-13.49-5.652-14.094
			c0,0-1.961-0.451-1.434,0.604c0.529,1.055,3.844,9.948,3.693,13.641c-0.15,3.693,0.377,5.577-4.371,8.064
			s-19.52,5.502-37.834,5.426c-18.312-0.075-35.646-0.075-40.168-4.371c0,0-1.809-6.18-1.131-10.174c0,0,0.754-1.583-0.15-1.658
			s-0.904-0.075-0.904-0.075l0.904-7.839c0,0-1.734-0.377-2.111,0.076c-0.377,0.451-0.754-0.453-1.281,8.365
			c0,0-17.334,1.056-18.766,1.809c0,0-0.527,5.276-0.15,5.804s-0.98,1.884,19.67,1.884c0,0,1.432,3.542,2.939,4.748
			c0,0,1.885,3.316,21.102,4.146c0,0,21.178,0.904,33.539-0.452c12.359-1.357,12.736-0.829,22.684-3.844
			c9.949-3.015,6.859-4.371,20.65-4.975c13.792-0.603,13.792,5.275,31.502,7.461c17.711,2.186,46.274,4.447,62.102-0.226
			C400.803,416.769,405.551,416.015,406.982,410.212z"/>
	</g>
	<g>
		<path fill="#FFFFFF" d="M399.521,413.227c0,0,3.278-1.696,3.655-3.73c0.377-2.035,1.356-9.609-0.414-20.35
			c0,0-1.696-6.443-6.256-8.553c-4.56-2.111-16.882-5.729-30.108-6.105s-19.708-0.754-28.526,1.318c0,0-4.446,0.604-6.405,3.166
			c-1.96,2.562-5.088,9.27-5.088,9.27s-3.315,9.346-3.429,14.357s1.847,6.029,6.972,8.178c5.124,2.147,22.006,4.748,39.642,4.71
			C369.563,415.487,393.115,415.713,399.521,413.227z"/>
		<path d="M371.083,415.742L371.083,415.742c-0.965,0-1.521-0.005-1.521-0.005h-0.382c-16.79,0-33.904-2.445-39.354-4.729
			c-5.154-2.161-7.242-3.244-7.125-8.414c0.113-4.994,3.308-14.052,3.443-14.435c0.137-0.297,3.171-6.784,5.125-9.339
			c1.998-2.614,6.384-3.236,6.57-3.261c5.702-1.341,10.35-1.617,15.565-1.617c2.98,0,6.328,0.099,10.204,0.214l2.797,0.082
			c13.171,0.375,25.518,3.958,30.207,6.128c4.613,2.134,6.321,8.449,6.393,8.718c1.886,11.437,0.679,19.048,0.418,20.458
			c-0.395,2.13-3.648,3.835-3.786,3.906C394.154,415.578,376.397,415.742,371.083,415.742z M369.562,415.237
			c0.004,0,0.559,0.005,1.521,0.005c5.29,0,22.971-0.162,28.348-2.249c0.008-0.005,3.15-1.653,3.5-3.543
			c0.159-0.855,1.493-8.69-0.415-20.263c-0.012-0.04-1.716-6.333-6.113-8.367c-4.653-2.154-16.915-5.709-30.011-6.082l-2.798-0.082
			c-3.872-0.115-7.217-0.214-10.189-0.214c-5.181,0-9.796,0.273-15.475,1.608c-0.067,0.01-4.392,0.624-6.265,3.073
			c-1.921,2.512-5.028,9.157-5.06,9.224c-0.024,0.072-3.294,9.344-3.405,14.258c-0.108,4.791,1.667,5.782,6.818,7.941
			c4.692,1.967,20.912,4.69,39.161,4.69H369.562z"/>
	</g>
	<g>
		<path fill="#FFFFFF" d="M287.504,410.035c0,0,2.764-1.306,3.844-4.295s-0.904-8.844-1.055-9.547
			c-0.152-0.703-4.32-14.168-8.115-17.609c-3.793-3.443-14.922-4.498-14.922-4.498s-26.002-0.803-36.439,1.57
			c-10.438,2.375-13.377,3.467-16.844,5.691c-3.467,2.223-3.994,9.797-4.258,12.887s-0.516,8.893-0.264,10.501
			c0.25,1.607,0.779,5.175,1.709,6.255c0.928,1.08,1.984,1.407,3.365,1.884c1.381,0.478,8.34,1.432,11.455,1.684
			c3.115,0.251,22.938,0.503,22.938,0.503s10.977-0.075,13.188-0.352S281.699,413.176,287.504,410.035z"/>
		<path d="M248.916,415.311h-0.002c-0.198-0.003-19.865-0.255-22.953-0.504c-3.094-0.25-10.084-1.201-11.517-1.696l-0.183-0.063
			c-1.318-0.453-2.36-0.811-3.291-1.894c-0.945-1.098-1.463-4.424-1.74-6.21l-0.027-0.17c-0.252-1.617-0.014-7.335,0.262-10.561
			l0.027-0.314c0.287-3.423,0.887-10.545,4.346-12.762c3.449-2.215,6.234-3.293,16.924-5.725c6.206-1.411,17.849-1.707,26.523-1.707
			c5.674,0,9.936,0.129,9.979,0.131c0.473,0.044,11.271,1.104,15.082,4.562c3.843,3.485,8.011,16.902,8.191,17.742
			c0.02,0.096,0.076,0.287,0.152,0.557c0.506,1.771,1.85,6.479,0.893,9.128c-1.102,3.051-3.855,4.381-3.972,4.436
			c-5.044,2.73-18.667,4.035-23.796,4.527c-0.795,0.076-1.377,0.132-1.678,0.169c-2.2,0.275-12.769,0.351-13.218,0.354H248.916z
			 M257.285,374.205c-8.648,0-20.252,0.293-26.412,1.694c-10.616,2.415-13.371,3.479-16.766,5.658
			c-3.251,2.084-3.857,9.301-4.117,12.383l-0.027,0.315c-0.266,3.125-0.508,8.884-0.266,10.441l0.027,0.169
			c0.25,1.613,0.773,4.972,1.625,5.961c0.843,0.98,1.778,1.302,3.074,1.747l0.184,0.063c1.375,0.476,8.398,1.429,11.394,1.671
			c3.062,0.246,22.604,0.498,22.917,0.502c0.221-0.002,10.997-0.08,13.156-0.35c0.304-0.038,0.891-0.094,1.693-0.171
			c5.1-0.489,18.65-1.787,23.617-4.475c0.039-0.019,2.697-1.309,3.727-4.16c0.902-2.497-0.409-7.092-0.902-8.821
			c-0.082-0.284-0.14-0.488-0.161-0.589c-0.171-0.794-4.355-14.136-8.038-17.477c-3.689-3.348-14.668-4.424-14.777-4.435
			C267.205,374.334,262.951,374.205,257.285,374.205z"/>
	</g>
</g>
<g>
	<g>
		<path d="M220.982,37.212l15.776-0.402c0,0,2.01-0.201,1.809-0.904c-0.2-0.703,0-5.527,0-5.527s-0.101-0.603-1.507-1.104
			c-1.406-0.503-14.797-1.482-15.399-1.558c0,0,0-6.632-0.679-7.687c-0.678-1.056-2.261-1.433-2.638-1.207
			c-0.377,0.227,2.638,14.32-1.432,20.349c0,0-0.302,1.733-7.461,2.939c-7.16,1.206-30.523,2.487-44.165,0.603
			c-13.641-1.884-14.62-1.582-22.458-3.994c0,0-4.748-2.261-5.804-3.692c-1.055-1.433-1.733-4.371,0-12.361
			c0,0,1.433-5.275,2.186-5.728c0.754-0.452,0.452-1.733-0.15-1.809s-2.562,0.527-2.939,1.433
			c-0.377,0.904-2.713,10.55-3.919,13.113s-2.261,3.467-11.229,3.467c-8.968,0-9.344-0.753-11.002-3.692s-2.412-13.491-5.652-14.094
			c0,0-1.96-0.451-1.433,0.604c0.528,1.055,3.844,9.949,3.693,13.641c-0.15,3.693,0.377,5.577-4.371,8.064
			s-19.52,5.502-37.834,5.426c-18.313-0.075-35.647-0.075-40.169-4.371c0,0-1.809-6.18-1.131-10.174c0,0,0.754-1.583-0.15-1.658
			s-0.904-0.075-0.904-0.075l0.904-7.838c0,0-1.733-0.377-2.11,0.075s-0.754-0.452-1.281,8.366c0,0-17.334,1.056-18.766,1.809
			c0,0-0.528,5.276-0.151,5.804s-0.979,1.884,19.671,1.884c0,0,1.432,3.542,2.938,4.748c0,0,1.885,3.316,21.103,4.146
			c0,0,21.178,0.904,33.538-0.452c12.359-1.357,12.736-0.829,22.685-3.844s6.858-4.371,20.65-4.975
			c13.792-0.603,13.792,5.275,31.502,7.461c17.711,2.186,46.274,4.447,62.102-0.226C214.803,43.769,219.551,43.015,220.982,37.212z"
			/>
	</g>
	<g>
		<path fill="#FFFFFF" d="M213.521,40.227c0,0,3.278-1.696,3.655-3.73c0.377-2.035,1.356-9.609-0.414-20.349
			c0,0-1.696-6.444-6.256-8.554c-4.56-2.11-16.882-5.729-30.108-6.105s-19.708-0.753-28.526,1.319c0,0-4.446,0.603-6.405,3.165
			c-1.96,2.562-5.088,9.271-5.088,9.271s-3.315,9.345-3.429,14.357s1.847,6.029,6.972,8.178c5.124,2.147,22.006,4.748,39.642,4.71
			C183.563,42.487,207.115,42.713,213.521,40.227z"/>
		<path d="M185.083,42.742L185.083,42.742c-0.965,0-1.521-0.005-1.521-0.005h-0.382c-16.79,0-33.904-2.445-39.354-4.729
			c-5.154-2.161-7.242-3.244-7.125-8.414c0.113-4.994,3.308-14.052,3.443-14.435c0.137-0.297,3.171-6.784,5.125-9.339
			c1.998-2.614,6.384-3.236,6.57-3.261c5.702-1.341,10.35-1.617,15.565-1.617c2.98,0,6.328,0.099,10.204,0.214l2.797,0.082
			c13.171,0.375,25.518,3.958,30.207,6.128c4.613,2.134,6.321,8.449,6.393,8.717c1.886,11.437,0.679,19.048,0.418,20.458
			c-0.395,2.13-3.648,3.835-3.786,3.906C208.154,42.578,190.397,42.742,185.083,42.742z M183.562,42.237
			c0.004,0,0.559,0.005,1.521,0.005c5.29,0,22.971-0.162,28.348-2.249c0.008-0.005,3.15-1.653,3.5-3.543
			c0.159-0.855,1.493-8.69-0.415-20.263c-0.012-0.04-1.716-6.333-6.113-8.367c-4.653-2.154-16.915-5.709-30.011-6.083l-2.798-0.082
			c-3.872-0.114-7.217-0.213-10.189-0.213c-5.181,0-9.796,0.273-15.475,1.608c-0.067,0.01-4.392,0.625-6.265,3.074
			c-1.921,2.512-5.028,9.158-5.06,9.224c-0.024,0.071-3.294,9.343-3.405,14.257c-0.108,4.791,1.667,5.782,6.818,7.941
			c4.692,1.967,20.912,4.69,39.161,4.69H183.562z"/>
	</g>
	<g>
		<path fill="#FFFFFF" d="M101.503,37.035c0,0,2.764-1.306,3.844-4.295s-0.904-8.843-1.055-9.547
			c-0.151-0.703-4.32-14.168-8.114-17.609c-3.794-3.442-14.923-4.498-14.923-4.498s-26.001-0.803-36.438,1.57
			C34.378,5.031,31.439,6.123,27.972,8.347c-3.467,2.223-3.994,9.797-4.258,12.887c-0.264,3.09-0.515,8.893-0.264,10.501
			c0.251,1.607,0.779,5.175,1.709,6.255c0.929,1.08,1.984,1.407,3.366,1.884c1.381,0.478,8.34,1.432,11.455,1.684
			c3.115,0.251,22.937,0.503,22.937,0.503s10.978-0.075,13.188-0.352S95.7,40.176,101.503,37.035z"/>
		<path d="M62.917,42.311h-0.002c-0.198-0.003-19.865-0.255-22.953-0.504c-3.093-0.25-10.084-1.201-11.517-1.696l-0.183-0.063
			c-1.318-0.453-2.36-0.811-3.291-1.894c-0.945-1.098-1.462-4.424-1.74-6.21l-0.026-0.17c-0.252-1.617-0.014-7.335,0.262-10.561
			l0.026-0.314c0.288-3.423,0.887-10.544,4.346-12.762c3.45-2.214,6.235-3.292,16.924-5.725c6.207-1.411,17.849-1.708,26.523-1.708
			c5.674,0,9.936,0.13,9.979,0.131C81.737,0.88,92.535,1.94,96.346,5.398c3.842,3.485,8.01,16.903,8.191,17.742
			c0.02,0.096,0.076,0.288,0.152,0.557c0.506,1.772,1.85,6.48,0.893,9.128c-1.103,3.051-3.855,4.381-3.972,4.436
			c-5.044,2.73-18.667,4.035-23.796,4.527c-0.795,0.076-1.377,0.132-1.677,0.169c-2.201,0.275-12.769,0.351-13.218,0.354H62.917z
			 M71.285,1.205c-8.648,0-20.251,0.294-26.412,1.695c-10.616,2.416-13.371,3.48-16.766,5.658c-3.25,2.084-3.857,9.301-4.117,12.383
			l-0.027,0.315c-0.267,3.125-0.509,8.884-0.266,10.442l0.026,0.169c0.251,1.613,0.773,4.972,1.625,5.961
			c0.843,0.98,1.779,1.302,3.075,1.747l0.184,0.063c1.375,0.476,8.398,1.429,11.394,1.671c3.062,0.246,22.604,0.498,22.917,0.502
			c0.221-0.002,10.997-0.08,13.156-0.35c0.303-0.038,0.89-0.094,1.692-0.171c5.101-0.489,18.65-1.787,23.617-4.475
			c0.039-0.019,2.697-1.309,3.728-4.16c0.902-2.497-0.41-7.092-0.903-8.821c-0.081-0.284-0.139-0.488-0.161-0.589
			c-0.171-0.794-4.355-14.136-8.038-17.477c-3.69-3.348-14.668-4.424-14.778-4.434C81.206,1.334,76.951,1.205,71.285,1.205z"/>
	</g>
</g>
</svg>
